{
    "asset" : {
        "generator" : "Khronos glTF Blender I/O v1.5.17",
        "version" : "2.0"
    },
    "scene" : 0,
    "scenes" : [
        {
            "name" : "Scene",
            "nodes" : [
                0,
                1
            ]
        }
    ],
    "nodes" : [
        {
            "mesh" : 0,
            "name" : "Cylinder.001",
            "rotation" : [
                0.7071067690849304,
                0,
                0,
                0.7071068286895752
            ],
            "scale" : [
                1,
                1.7488538026809692,
                1
            ]
        },
        {
            "mesh" : 1,
            "name" : "Cylinder.004",
            "rotation" : [
                0.5720614194869995,
                -0.4156269431114197,
                -0.4156269431114197,
                0.5720613598823547
            ],
            "scale" : [
                0.13917016983032227,
                5.96707820892334,
                0.13917016983032227
            ],
            "translation" : [
                0,
                0,
                7.960073947906494
            ]
        }
    ],
    "materials" : [
        {
            "doubleSided" : true,
            "name" : "Material.004",
            "pbrMetallicRoughness" : {
                "baseColorFactor" : [
                    0.05496896058320999,
                    0.05496896058320999,
                    0.05496896058320999,
                    1
                ],
                "metallicFactor" : 0,
                "roughnessFactor" : 0.5
            }
        },
        {
            "doubleSided" : true,
            "name" : "Material.003",
            "pbrMetallicRoughness" : {
                "baseColorFactor" : [
                    0.16264192759990692,
                    0.16264192759990692,
                    0.16264192759990692,
                    1
                ],
                "metallicFactor" : 0,
                "roughnessFactor" : 0.5
            }
        }
    ],
    "meshes" : [
        {
            "name" : "Cylinder.003",
            "primitives" : [
                {
                    "attributes" : {
                        "POSITION" : 0,
                        "NORMAL" : 1,
                        "TEXCOORD_0" : 2
                    },
                    "indices" : 3,
                    "material" : 0
                }
            ]
        },
        {
            "name" : "Cylinder.004",
            "primitives" : [
                {
                    "attributes" : {
                        "POSITION" : 4,
                        "NORMAL" : 5,
                        "TEXCOORD_0" : 6
                    },
                    "indices" : 7,
                    "material" : 1
                }
            ]
        }
    ],
    "accessors" : [
        {
            "bufferView" : 0,
            "componentType" : 5126,
            "count" : 396,
            "max" : [
                1,
                1.1805942058563232,
                1
            ],
            "min" : [
                -1,
                -1,
                -1
            ],
            "type" : "VEC3"
        },
        {
            "bufferView" : 1,
            "componentType" : 5126,
            "count" : 396,
            "type" : "VEC3"
        },
        {
            "bufferView" : 2,
            "componentType" : 5126,
            "count" : 396,
            "type" : "VEC2"
        },
        {
            "bufferView" : 3,
            "componentType" : 5123,
            "count" : 756,
            "type" : "SCALAR"
        },
        {
            "bufferView" : 4,
            "componentType" : 5126,
            "count" : 1728,
            "max" : [
                7.163297653198242,
                1,
                7.163299083709717
            ],
            "min" : [
                -7.163298606872559,
                -1.0000001192092896,
                -7.163298606872559
            ],
            "type" : "VEC3"
        },
        {
            "bufferView" : 5,
            "componentType" : 5126,
            "count" : 1728,
            "type" : "VEC3"
        },
        {
            "bufferView" : 6,
            "componentType" : 5126,
            "count" : 1728,
            "type" : "VEC2"
        },
        {
            "bufferView" : 7,
            "componentType" : 5123,
            "count" : 3348,
            "type" : "SCALAR"
        }
    ],
    "bufferViews" : [
        {
            "buffer" : 0,
            "byteLength" : 4752,
            "byteOffset" : 0
        },
        {
            "buffer" : 0,
            "byteLength" : 4752,
            "byteOffset" : 4752
        },
        {
            "buffer" : 0,
            "byteLength" : 3168,
            "byteOffset" : 9504
        },
        {
            "buffer" : 0,
            "byteLength" : 1512,
            "byteOffset" : 12672
        },
        {
            "buffer" : 0,
            "byteLength" : 20736,
            "byteOffset" : 14184
        },
        {
            "buffer" : 0,
            "byteLength" : 20736,
            "byteOffset" : 34920
        },
        {
            "buffer" : 0,
            "byteLength" : 13824,
            "byteOffset" : 55656
        },
        {
            "buffer" : 0,
            "byteLength" : 6696,
            "byteOffset" : 69480
        }
    ],
    "buffers" : [
        {
            "byteLength" : 76176,
            "uri" : "data:application/octet-stream;base64,"
        }
    ]
}
